<svg xmlns="http://www.w3.org/2000/svg" xmlns:xlink="http://www.w3.org/1999/xlink" width="90" height="90"><defs><path id="a" d="M0 10.246h31.322V52H0z"/></defs><g transform="translate(5 5)" fill="none" fill-rule="evenodd"><circle stroke="#FFF" stroke-width="5" fill="#3D8FFF" cx="40" cy="40" r="42.5"/><path d="M55.622 17.4c-5.034 0-9.132 4.097-9.132 9.141 0 5.034 4.098 9.132 9.132 9.132 5.044 0 9.141-4.098 9.141-9.132 0-5.044-4.097-9.141-9.141-9.141m5.168 7.841l-5.168 5.17a1.833 1.833 0 01-2.58 0l-2.59-2.58a1.846 1.846 0 010-2.59 1.846 1.846 0 012.59 0l1.29 1.3 3.88-3.868c.696-.728 1.86-.728 2.578 0a1.82 1.82 0 010 2.568" fill="#FFF"/><g transform="translate(23 7.153)"><mask id="b" fill="#fff"><use xlink:href="#a"/></mask><path d="M28.742 42.798h-6.385v6.542H5.769c-1.768 0-3.203-1.436-3.203-3.183V16.112c0-.853.343-1.664.946-2.268a3.17 3.17 0 012.257-.936h17.066a11.57 11.57 0 012.423-2.662H5.498a5.514 5.514 0 00-3.879 1.602 5.462 5.462 0 00-1.622 3.89V46.51c0 3.026 2.475 5.491 5.501 5.491h17.015a2.22 2.22 0 001.56-.634l6.593-6.594c.396-.395.624-.915.635-1.477.01-.073.02-.156.02-.25h-.02l-.01-12a10.342 10.342 0 01-2.549-.594v12.345z" fill="#FFF" mask="url(#b)"/></g><path d="M32.842 26.043H29.15a.934.934 0 00-.926.926v3.702c0 .5.416.926.926.926h3.692c.51 0 .925-.426.925-.926V26.97c0-.5-.416-.926-.925-.926m0 9.464H29.15a.93.93 0 00-.926.936v3.692c0 .5.416.916.926.916h3.692c.51 0 .925-.416.925-.916v-3.692a.93.93 0 00-.925-.936m0 9.456H29.15a.928.928 0 00-.926.926v3.702c0 .51.416.915.926.915h3.692c.51 0 .925-.405.925-.915V45.89a.928.928 0 00-.925-.926M43.87 26.54h-6.51c-.728 0-1.31.583-1.31 1.3 0 .718.582 1.3 1.31 1.3h6.812a11.858 11.858 0 01-.301-2.6m-6.511 5.21a1.312 1.312 0 000 2.622h9.516a11.85 11.85 0 01-1.768-2.621H37.36zm-1.309 6.531c0 .718.582 1.31 1.31 1.31h10.432a1.312 1.312 0 000-2.62H37.36a1.31 1.31 0 00-1.31 1.31m11.742 3.921H37.36c-.728 0-1.31.582-1.31 1.3 0 .717.582 1.3 1.31 1.3h10.432c.728 0 1.31-.583 1.31-1.3 0-.718-.582-1.3-1.31-1.3m-5.222 5.21h-5.21c-.728 0-1.31.593-1.31 1.31 0 .718.582 1.3 1.31 1.3h5.21a1.3 1.3 0 001.3-1.3 1.31 1.31 0 00-1.3-1.31" fill="#FFF"/></g></svg>