<svg xmlns="http://www.w3.org/2000/svg" width="90" height="90"><g transform="translate(5 5)" fill="none" fill-rule="evenodd"><circle stroke="#FFF" stroke-width="5" fill="#3D8FFF" cx="40" cy="40" r="42.5"/><g fill="#FFF"><path d="M33.319 48.244h15.16V26.076c0-.85-.696-1.53-1.553-1.53H27.943c.043.109.054.216.098.335.01.097.043.183.065.258.043.323.076.614.076.937v27.328c0 1.303 1.499 2.359 2.813 2.359 0 0 4.69.398 2.324-7.519m-10.241-27.24h23.848c2.823 0 5.114 2.283 5.114 5.072l-.01 22.168h7.319c2.834 1.271 4.54 11.084-4.735 11.052H30.582c-3.29 0-5.962-2.65-5.962-5.892v-23.87h-6.299c-1.064-5.073.522-8.11 4.757-8.53"/><path d="M45.42 29.215a.89.89 0 01-.891.884H32.062a.89.89 0 01-.89-.884c0-.495.401-.894.89-.894H44.53c.489 0 .89.399.89.894m-3.564 3.535c0 .495-.39.883-.89.883H32.06a.884.884 0 01-.89-.884.89.89 0 01.89-.883h8.905c.5 0 .89.399.89.883m-3.563 3.525a.884.884 0 01-.89.883h-5.343a.884.884 0 01-.89-.883c0-.474.401-.883.89-.883h5.343c.488 0 .89.409.89.883"/></g></g></svg>