<svg xmlns="http://www.w3.org/2000/svg" xmlns:xlink="http://www.w3.org/1999/xlink" width="90" height="90"><defs><path id="a" d="M0-.003h44.163v44.159H0z"/></defs><g transform="translate(5 5)" fill="none" fill-rule="evenodd"><circle stroke="#FFF" stroke-width="5" fill="#3D8FFF" cx="40" cy="40" r="42.5"/><g transform="translate(16 15)"><mask id="b" fill="#fff"><use xlink:href="#a"/></mask><path d="M35.88 20.077a16.462 16.462 0 00-2.75-1.661c-2.442-1.177-5.27-1.86-8.283-1.86-3.025 0-5.852.683-8.283 1.86a16.663 16.663 0 00-2.772 1.66V17.24a17.446 17.446 0 012.772-1.661 18.53 18.53 0 015.808-1.694c.45.34.946.627 1.485.88 2.244 1.023 4.708.88 6.754-.176.869.264 1.705.605 2.519.99a17.233 17.233 0 012.75 1.66v2.839zM22.559 9.967l1.067-1.33c.33.407.78.869 1.353 1.232.176.11.352.22.539.297.726.33 1.33.264 1.584-.187a.118.118 0 00.033-.055c.23-.484-.055-.98-.88-1.738-1.166-1.1-1.826-2.167-1.254-3.421.517-1.144 1.716-1.672 3.223-1.32l.044-.1c.01-.021.022-.054.033-.076l.11-.253a.688.688 0 01.924-.341c.352.154.495.572.34.924l-.043.077.01.01-.11.243a4.972 4.972 0 011.695 1.287l-1.045 1.287a4.338 4.338 0 00-1.65-1.298c-.858-.374-1.287-.121-1.452.242-.187.407.132.902 1.067 1.793 1.166 1.122 1.518 2.046 1.177 3.08l-.132.33c-.517 1.144-1.76 1.77-3.366 1.353l-.121.297-.022-.011-.055.132a.703.703 0 01-.924.34c-.341-.164-.506-.582-.33-.923l.044-.121.088-.198c-.836-.418-1.562-1.045-1.925-1.54l-.022-.011zM7.346 32.343c-.77 0-1.386-1.133-1.386-2.541 0-1.397.616-2.53 1.386-2.53.759 0 1.375 1.133 1.375 2.53 0 1.408-.616 2.54-1.375 2.54zm-4.61-.792c-.77 0-1.385-1.144-1.385-2.541s.616-2.53 1.386-2.53c.77 0 1.375 1.133 1.375 2.53 0 1.397-.605 2.54-1.375 2.54zm41.427-5.335c0-6.336-4.257-11.814-10.472-14.531.132-.242.275-.495.385-.748A7.713 7.713 0 0030.248.695a7.713 7.713 0 00-10.23 3.839 7.687 7.687 0 00-.21 5.896 20.888 20.888 0 00-6.225 2.508c-1.287-1.672-3.168-2.365-4.345-1.573-1.276.847-1.276 3.069 0 4.972.033.055.055.099.088.143-1.452 1.65-2.552 3.542-3.18 5.599H5.52c-3.047 0-5.522 3.09-5.522 6.908 0 3.806 2.475 6.897 5.522 6.897h3.74a18.613 18.613 0 004.62 3.795c.363 2.552 2.046 4.477 4.059 4.477h2.76c1.156 0 2.19-.616 2.938-1.628.396.022.792.033 1.21.033 1.287 0 2.552-.11 3.773-.297.759 1.155 1.88 1.892 3.124 1.892h2.76c2.289 0 4.137-2.464 4.137-5.522 0-.308-.022-.616-.055-.913 3.443-2.96 5.577-7.03 5.577-11.506z" fill="#FFF" mask="url(#b)"/></g></g></svg>