<svg width="90" height="90" xmlns="http://www.w3.org/2000/svg" xmlns:xlink="http://www.w3.org/1999/xlink"><defs><path id="a" d="M0 .659h18.047v22.41H0z"/><path id="c" d="M.52.308h35.807V37.2H.52z"/></defs><g transform="translate(5 5)" fill="none" fill-rule="evenodd"><circle stroke="#FFF" stroke-width="5" fill="#3D8FFF" cx="40" cy="40" r="42.5"/><g transform="translate(21 19.142)"><mask id="b" fill="#fff"><use xlink:href="#a"/></mask><path d="M17.468 17.346L4.807 1.53a2.143 2.143 0 00-1.52-.852 2.622 2.622 0 00-1.841.5h-.01l-.324.235c-.549.392-.92.96-1.058 1.597a2.157 2.157 0 00.323 1.705l10.917 17.082c.02.01.03.039.04.068 1.01 1.382 3.067 1.607 4.586.51l.627-.451c1.53-1.107 1.96-3.136.96-4.518-.019-.02-.029-.04-.039-.059" fill="#FFF" mask="url(#b)"/></g><path d="M38.54 43.092c-2.342 1.705-2.999 4.792-1.47 6.919 2.029 2.802 7.997 3.498 8.242 3.528.235.02.46-.04.637-.177a.862.862 0 00.362-.549c.01-.039.04-.186.079-.43a5.801 5.801 0 01-.402-1.873 5.883 5.883 0 010-.588c.627-2.998.745-6.526-2.401-7.555a4.263 4.263 0 00-.598-.196c-1.44-.353-3.077-.069-4.449.92" fill="#FFF"/><g transform="translate(24 21.942)"><mask id="d" fill="#fff"><use xlink:href="#c"/></mask><path d="M30.269 15.102a3.706 3.706 0 00-3.704 3.695 3.708 3.708 0 003.704 3.704 3.691 3.691 0 003.685-3.704 3.689 3.689 0 00-3.685-3.695M22.87 5.253a3.689 3.689 0 100 7.38 3.689 3.689 0 100-7.38m1.421 30.958c-8.497 2.636-18.424-.176-22.168-6.311-2.871-4.704-1.009-10.849-1.009-10.849.49-1.656 1.343-2.626 2.244-3.204l2.862 4.469c.039.068.078.127.117.176.931 1.303 2.372 2.087 3.989 2.205-.892 2.254-.696 4.812.755 6.811 2.548 3.538 8.741 4.4 9.956 4.547.128.01.245.01.373.01.705 0 1.401-.225 1.98-.647a3.353 3.353 0 001.332-2.028c.03-.108.059-.294.108-.55.069-.43.02-.871-.137-1.283a3.91 3.91 0 01-.255-1.117v-.177c.421-2.087.48-3.822.176-5.301-.49-2.382-1.98-4.107-4.194-4.851a9.56 9.56 0 00-.853-.275 7.725 7.725 0 00-1.783-.215c-.157 0-.304.02-.451.029.372-1.529.127-3.156-.823-4.479 0-.01-.01-.02-.02-.029-.03-.049-.068-.088-.108-.147l-3.851-4.812c-.657-4.331 2.803-8.761 9.34-7.722 5.928.94 11.642 3.93 13.906 12.76 2.342 9.113-3 20.383-11.486 22.99" fill="#FFF" mask="url(#d)"/></g></g></svg>