<svg xmlns="http://www.w3.org/2000/svg" width="90" height="90"><g transform="translate(5 5)" fill="none" fill-rule="evenodd"><circle stroke="#FFF" stroke-width="5" fill="#3D8FFF" cx="40" cy="40" r="42.5"/><path d="M36.801 51.172c8.503 0 15.378-6.864 15.378-15.367 0-8.492-6.875-15.367-15.378-15.367-8.492 0-15.356 6.875-15.356 15.367 0 8.503 6.864 15.367 15.356 15.367m23.661 8.184C59.34 60.5 57.855 61.04 56.37 61.04a5.733 5.733 0 01-4.092-1.683l-6.919-6.798a18.718 18.718 0 01-8.558 2.057c-10.384 0-18.799-8.415-18.799-18.81 0-10.384 8.415-18.799 18.8-18.799 10.383 0 18.81 8.415 18.81 18.8 0 3.09-.749 6.005-2.08 8.568l6.93 6.798a5.776 5.776 0 010 8.184" fill="#FFF"/></g></svg>