<svg xmlns="http://www.w3.org/2000/svg" xmlns:xlink="http://www.w3.org/1999/xlink" width="90" height="90"><defs><path id="a" d="M.005 3.57H45.77v42.028H.005z"/></defs><g transform="translate(5 5)" fill="none" fill-rule="evenodd"><circle stroke="#FFF" stroke-width="5" fill="#3D8FFF" cx="40" cy="40" r="42.5"/><g transform="translate(18 13.835)"><mask id="b" fill="#fff"><use xlink:href="#a"/></mask><path d="M32.335 36.652c1.208 1.22 2.417 2.44 3.637 3.648.045.034.08.057.125.08-.33.308-.661.616-.992.89-7.478-4.64-16.997-4.64-24.453.01-.342-.284-.661-.57-.98-.877.045-.034.08-.057.114-.103 1.231-1.208 2.44-2.428 3.66-3.648 1.379-1.39-.765-3.534-2.144-2.132-1.22 1.209-2.428 2.417-3.648 3.626-2.52-3.34-3.842-7.41-3.865-11.571h4.23c1.96 0 1.96-3.021 0-3.021H3.995A20.743 20.743 0 015.02 19.54c.877-2.383 2.245-4.48 3.955-6.247.776.786 1.55 1.561 2.326 2.325 1.38 1.38 3.523-.764 2.143-2.143l-2.177-2.177a20.095 20.095 0 0110.1-3.854v2.748c0 1.96 3.044 1.96 3.044 0v-2.76c3.716.263 7.182 1.677 10.055 3.911-.707.718-1.425 1.414-2.132 2.132-1.39 1.38.752 3.523 2.132 2.143.752-.74 1.505-1.493 2.246-2.234a20.124 20.124 0 013.819 5.677 16.641 16.641 0 011.322 4.492H37.75c-1.95 0-1.95 3.02 0 3.02h4.31c-.058 4.139-1.483 8.231-3.98 11.537a357.384 357.384 0 00-3.613-3.59c-1.38-1.403-3.523.74-2.132 2.131m9.382 2.793c.114-.148.205-.285.308-.433.023-.046.046-.103.08-.137a23.34 23.34 0 003.625-11.012v-.012c.011-.193.011-.376.023-.558.011-.205.011-.422.011-.639.012-.102.012-.205.012-.307a22.931 22.931 0 00-4.937-14.09c-3.135-3.865-7.5-6.715-12.346-7.98a25.1 25.1 0 00-1.3-.297c-.262-.046-.524-.103-.797-.148-.012 0-.057 0-.08-.012a24.541 24.541 0 00-2.246-.216 19.896 19.896 0 00-1.174-.035h-.023c-5.666.035-11.218 2.212-15.447 6.008C3.14 13.51.358 19.04.027 25.23v.069c-.011.376-.022.74-.022 1.128v.149c.011.296.011.592.022.877 0 .103.012.217.012.33.433 7.422 4.412 13.909 10.26 17.785.536.114 1.037-.091 1.39-.456 6.92-4.731 15.664-4.685 22.55.125.353.251.923.33 1.413.217a22.692 22.692 0 006.065-6.008" fill="#FFF" mask="url(#b)"/></g><path d="M41.968 41.76c-.16.147-.342.261-.558.352a1.881 1.881 0 01-2.428-1.06 1.882 1.882 0 011.083-2.405c.205-.091.433-.126.638-.126a1.85 1.85 0 011.767 1.175 1.855 1.855 0 01-.501 2.063M52 35.991c-.217-.582-1.004-.821-1.733-.548l-7.558 1.038a4.293 4.293 0 00-3.557-.183 4.367 4.367 0 00-2.485 5.666c.866 2.246 3.397 3.352 5.654 2.485a4.416 4.416 0 002.497-2.542l6.27-4.343c.74-.285 1.14-.992.912-1.573" fill="#FFF"/></g></svg>