<svg xmlns="http://www.w3.org/2000/svg" xmlns:xlink="http://www.w3.org/1999/xlink" width="90" height="90"><defs><path id="a" d="M.007.85H19.15v19.136H.007z"/></defs><g transform="translate(5 5)" fill="none" fill-rule="evenodd"><circle stroke="#FFF" stroke-width="5" fill="#3D8FFF" cx="40" cy="40" r="42.5"/><path d="M33.804 42.42c-2.16 0-3.92 1.76-3.92 3.93 0 2.15 1.76 3.91 3.92 3.91s3.92-1.76 3.92-3.91c0-2.17-1.76-3.93-3.92-3.93m13.8 3.12v1.62c-.11.91-.82 1.65-1.74 1.77h-1.88c-.16.02-.31.06-.44.13-.22.08-.41.2-.58.36a1.73 1.73 0 00-.12 2.3l.26.27.67.66.39.39c.55.74.55 1.77-.03 2.49l-1.15 1.15c-.72.57-1.75.57-2.49.02l-.39-.39-.65-.65-.28-.29c-.06-.04-.12-.08-.17-.12-.22-.13-.48-.22-.75-.24h-.15c-.17 0-.33.01-.48.06h-.01c-.08.03-.17.06-.25.09-.01.01-.02.01-.03.02-.01.01-.02.01-.04.02-.03.02-.06.04-.1.06h-.01c-.12.08-.24.18-.35.29-.01.02-.03.04-.05.07l-.05.05c-.18.25-.31.54-.34.87v1.87c-.13.91-.86 1.64-1.78 1.74h-1.62c-.92-.1-1.66-.83-1.78-1.74v-1.89c-.05-.37-.21-.73-.49-1.01-.36-.37-.84-.53-1.32-.5-.04.01-.08.01-.12.01h-.02c-.04.01-.09.02-.14.03-.05.01-.1.02-.14.04h-.01c-.05.02-.09.03-.14.04-.02.01-.03.02-.04.03-.03.01-.07.02-.1.04-.03.01-.06.04-.08.05-.02.02-.04.02-.06.03-.03.03-.06.05-.11.09-.01 0-.01 0-.02.01l-.92.93-.4.39c-.74.55-1.77.55-2.49-.02l-1.14-1.15c-.58-.72-.59-1.75-.03-2.49l.39-.39.65-.65.29-.29c.23-.3.37-.67.37-1.07 0-.77-.51-1.42-1.22-1.64a.423.423 0 00-.12-.04h-.03c-.05-.01-.11-.03-.17-.03h-1.87c-.9-.12-1.63-.86-1.73-1.78v-1.61c.1-.92.83-1.66 1.73-1.78h1.89c.37-.04.73-.21 1.01-.5.4-.39.56-.92.5-1.43v-.01c-.01-.04-.02-.09-.03-.14v-.01c-.02-.05-.02-.1-.04-.15-.01-.01-.01-.03-.01-.04-.02-.04-.03-.07-.05-.1 0-.01-.01-.03-.02-.05-.01-.03-.03-.06-.04-.1-.01-.02-.03-.04-.04-.06-.01-.03-.03-.05-.05-.07-.01-.02-.02-.05-.03-.07-.03-.02-.04-.05-.05-.06v-.01l-.94-.92-.39-.39c-.56-.75-.55-1.77.03-2.49l1.14-1.15a2.04 2.04 0 012.49-.02l.4.39.64.65.29.28c.29.24.66.37 1.07.37.43 0 .81-.15 1.12-.42.17-.13.31-.31.41-.5.03-.05.05-.1.06-.15l.06-.15v-.01c.01-.05.03-.09.04-.14v-.01c.01-.05.02-.1.02-.15v-1.86c.12-.92.86-1.65 1.78-1.74h1.62c.92.09 1.65.82 1.78 1.74v1.88c.04.37.21.73.49 1.02.16.15.34.28.53.36.58.24 1.26.17 1.77-.24l.92-.93.4-.39c.73-.56 1.76-.55 2.48.02l1.15 1.15c.58.72.58 1.75.03 2.49l-.39.39-.65.64-.3.29c-.11.16-.21.35-.27.53-.06.18-.1.35-.1.54 0 .6.31 1.12.77 1.43.01.01.03.01.04.02.21.14.46.23.74.27h1.86c.92.12 1.63.86 1.74 1.78" fill="#FFF"/><g transform="translate(41 19.154)"><mask id="b" fill="#fff"><use xlink:href="#a"/></mask><path d="M10.641 7.797c-1.44-.59-3.09.11-3.68 1.55-.58 1.44.11 3.09 1.55 3.67 1.45.6 3.09-.09 3.68-1.54.59-1.44-.1-3.08-1.55-3.68m8.46 5.86l-.45 1.09c-.32.59-1.01.88-1.66.72l-.37-.16-.62-.24-.28-.11a.88.88 0 00-.33-.05 1.256 1.256 0 00-1.2 1.61l.1.25.28.63.15.37c.17.65-.12 1.34-.71 1.66l-1.08.46c-.64.2-1.34-.09-1.68-.66l-.16-.37-.26-.61-.12-.28c-.02-.04-.05-.08-.08-.12a1.13 1.13 0 00-.43-.38c-.01 0-.02 0-.02-.01a.689.689 0 01-.08-.03c-.11-.04-.23-.08-.34-.08a.51.51 0 00-.21-.01h-.02s-.02.01-.03.01h-.09c-.1.02-.21.05-.31.1l-.06.03c-.01.01-.03.02-.05.03-.19.1-.36.28-.46.48v.01l-.11.25-.26.62-.15.38c-.33.58-1.02.86-1.68.69l-1.08-.45c-.6-.32-.89-1.02-.72-1.66l.15-.38.25-.61.11-.28c.07-.25.06-.55-.05-.82-.14-.33-.42-.58-.75-.69-.02-.01-.06-.02-.09-.03h-.01c-.03-.01-.06-.02-.1-.02-.04-.01-.07-.01-.11-.02h-.14c-.03 0-.05 0-.08.01-.02 0-.05 0-.07.01-.02 0-.04 0-.05.01-.03 0-.06 0-.09.01l-.01.01h-.02l-.88.37-.36.15c-.66.18-1.35-.11-1.67-.69l-.46-1.08c-.19-.66.09-1.35.66-1.69l.38-.16.61-.26.27-.12c.24-.13.44-.34.54-.61h.01c.21-.52.04-1.11-.38-1.45-.01-.02-.04-.03-.06-.05-.01 0-.02-.01-.03-.02l-.09-.06-.89-.35-.38-.16c-.58-.34-.86-1.02-.68-1.67l.45-1.1c.32-.58 1-.89 1.66-.72l.37.15.62.26.27.11c.26.07.55.06.82-.05.38-.16.63-.47.73-.84l.03-.1v-.16c.01-.02.01-.05.01-.07 0-.01 0-.02-.01-.04v-.13c0-.02 0-.04-.01-.06 0-.02-.01-.04-.02-.05 0-.03-.01-.05-.02-.06l-.36-.89-.16-.38c-.17-.64.11-1.32.7-1.66l1.09-.46c.64-.18 1.34.09 1.68.67l.16.38.25.61.12.28c.13.23.35.43.62.54.29.11.59.11.87.02.14-.04.29-.12.42-.23.02-.03.05-.05.08-.08l.07-.09h.01c.02-.02.04-.06.07-.08v-.01c.02-.03.04-.06.05-.09l.11-.26.25-.63.16-.38a1.45 1.45 0 011.67-.67l1.09.43c.59.33.89 1.01.72 1.67l-.16.37-.24.62-.11.27c-.08.26-.06.55.05.82.06.15.15.28.25.4.33.31.81.45 1.26.31l.88-.36.37-.16c.65-.18 1.34.12 1.67.7l.45 1.09c.2.64-.08 1.34-.66 1.68l-.37.15-.61.26-.28.11c-.12.08-.24.18-.33.29a1.24 1.24 0 00-.09 1.51c.01.01.01.02.02.02.11.16.25.29.42.38l.89.36.37.15c.59.34.87 1.03.69 1.68" fill="#FFF" mask="url(#b)"/></g></g></svg>