<svg xmlns="http://www.w3.org/2000/svg" xmlns:xlink="http://www.w3.org/1999/xlink" width="90" height="90"><defs><path id="a" d="M.005.996h52.177v49.45H.005z"/></defs><g transform="translate(5 5)" fill="none" fill-rule="evenodd"><circle stroke="#FFF" stroke-width="5" fill="#3D8FFF" cx="40" cy="40" r="42.5"/><g transform="translate(15 13)"><mask id="b" fill="#fff"><use xlink:href="#a"/></mask><path d="M50.818 24.438l-10.465-6.019a.636.636 0 00-.377-.104.677.677 0 00-.39.104.744.744 0 00-.377.663l.013 2.431a20.754 20.754 0 00-10.309 4.394V13.986h2.21a.73.73 0 00.663-.39.687.687 0 000-.767L25.767 2.39a.765.765 0 00-.676-.39.76.76 0 00-.663.39l-6.032 10.439a.882.882 0 000 .767c.156.247.403.39.676.39h2.21v11.921a20.816 20.816 0 00-10.283-4.394l-.013-2.431a.77.77 0 00-.377-.663.721.721 0 00-.377-.104.651.651 0 00-.39.104L-.61 24.438a.75.75 0 00-.39.676c0 .247.143.52.39.663l10.452 6.006a.651.651 0 00.39.104.721.721 0 00.377-.104.739.739 0 00.377-.663v-1.872c5.837 1.183 10.192 6.422 10.296 12.532v8.892c0 .208.078.403.234.546.13.13.325.234.533.234l6.058-.013c.442 0 .78-.351.78-.78v-8.658c.026-.065.026-.143.026-.221.104-6.11 4.485-11.362 10.296-12.532l.013 1.885c0 .286.143.546.377.663a.753.753 0 00.39.091c.13 0 .273-.026.364-.104l10.465-6.006c.234-.13.364-.416.364-.663 0-.286-.13-.546-.364-.676" fill="#FFF" mask="url(#b)"/></g></g></svg>